<?xml version="1.0" standalone="no"?>
<!DOCTYPE svg PUBLIC "-//W3C//DTD SVG 20010904//EN"
 "http://www.w3.org/TR/2001/REC-SVG-20010904/DTD/svg10.dtd">
<svg version="1.0" xmlns="http://www.w3.org/2000/svg"
 width="158.000000pt" height="134.000000pt" viewBox="0 0 135.000000 125.000000"
 preserveAspectRatio="xMidYMid meet">
<metadata>
Created by potrace 1.16, written by Peter Selinger 2001-2019
</metadata>
<g transform="translate(0.000000,134.000000) scale(0.100000,-0.100000)"
fill="#901c1c" stroke="none">
<path d="M620 1109 c-35 -14 -66 -46 -80 -80 -12 -29 -13 -29 -94 -29 -96 0
-140 -18 -168 -71 -16 -30 -18 -62 -18 -329 0 -331 3 -345 71 -382 31 -17 66
-18 449 -18 383 0 418 1 449 18 68 37 71 51 71 382 0 267 -2 299 -18 329 -28
52 -72 71 -167 71 l-80 0 -20 37 c-39 71 -58 78 -223 80 -84 2 -158 -2 -172
-8z m313 -87 c9 -10 23 -36 30 -58 l14 -39 112 -5 c84 -4 114 -9 121 -20 6 -9
10 -139 10 -302 0 -247 -2 -289 -16 -302 -13 -14 -66 -16 -424 -16 -358 0
-411 2 -424 16 -14 13 -16 55 -16 302 0 163 4 293 10 302 7 11 37 16 121 20
l112 5 14 39 c25 74 29 76 183 76 120 0 139 -2 153 -18z"/>
<path d="M674 841 c-52 -24 -111 -83 -135 -135 -25 -55 -25 -157 0 -212 24
-52 83 -111 135 -135 55 -25 157 -25 212 0 48 22 106 77 130 124 26 48 30 157
10 211 -21 55 -84 122 -139 147 -56 25 -158 25 -213 0z m141 -121 c25 0 74
-51 84 -86 26 -93 -60 -179 -152 -153 -91 25 -121 144 -53 208 25 24 73 42 94
35 8 -2 20 -4 27 -4z"/>
</g>
</svg>
