<?xml version="1.0" standalone="no"?>
<!DOCTYPE svg PUBLIC "-//W3C//DTD SVG 20010904//EN"
 "http://www.w3.org/TR/2001/REC-SVG-20010904/DTD/svg10.dtd">
<svg version="1.0" xmlns="http://www.w3.org/2000/svg"
 width="186.000000pt" height="50.000000pt" viewBox="0 0 686.000000 248.000000"
 preserveAspectRatio="xMidYMid meet">
<metadata>
Created by potrace 1.16, written by Peter Selinger 2001-2019
</metadata>
<g transform="translate(0.000000,248.000000) scale(0.100000,-0.100000)"
fill="#901c1c" stroke="none">
<path d="M2580 1340 l0 -600 95 0 95 0 0 304 0 304 26 32 c38 44 81 63 146 64
43 1 64 -4 85 -20 56 -41 58 -53 61 -381 l4 -303 95 0 95 0 -4 323 c-4 260 -8
331 -20 370 -37 111 -121 168 -248 168 -95 0 -156 -21 -217 -75 l-23 -19 0
216 0 217 -95 0 -95 0 0 -600z"/>
<path d="M1381 1883 c-30 -28 -34 -42 -32 -96 3 -75 123 -107 182 -48 48 49
38 125 -21 156 -46 24 -95 19 -129 -12z"/>
<path d="M480 1310 l0 -570 100 0 100 0 0 240 0 240 230 0 230 0 0 80 0 80
-227 2 -228 3 0 165 0 165 263 3 262 2 0 80 0 80 -365 0 -365 0 0 -570z"/>
<path d="M3820 1798 c-19 -13 -44 -43 -57 -68 l-24 -45 -109 -5 c-117 -5 -140
-15 -184 -74 -20 -27 -21 -39 -21 -406 0 -367 1 -379 21 -406 11 -15 33 -37
48 -48 27 -21 38 -21 551 -21 513 0 524 0 551 21 15 11 37 33 48 48 20 27 21
39 21 406 0 367 -1 379 -21 406 -44 59 -67 69 -185 74 l-109 5 -22 45 c-13 25
-38 55 -57 67 -32 22 -43 23 -226 23 -183 0 -194 -1 -225 -22z m404 -90 c13
-13 32 -47 41 -75 l17 -53 128 0 c104 0 132 -3 144 -16 14 -13 16 -60 16 -364
0 -304 -2 -351 -16 -364 -14 -14 -73 -16 -506 -16 -443 0 -493 2 -510 17 -17
15 -18 40 -18 361 0 307 2 347 17 364 14 16 33 18 143 18 l128 0 22 60 c33 88
38 90 217 90 144 0 153 -1 177 -22z"/>
<path d="M3965 1507 c-216 -55 -307 -324 -170 -503 84 -110 252 -151 381 -94
158 69 230 267 156 425 -66 139 -218 210 -367 172z m139 -171 c112 -47 116
-213 6 -268 -97 -49 -210 22 -210 132 0 107 105 177 204 136z"/>
<path d="M1955 1591 c-81 -21 -166 -88 -193 -151 -8 -19 -15 -60 -15 -91 -1
-109 73 -188 214 -229 38 -11 100 -29 139 -40 90 -26 124 -55 124 -105 0 -51
-44 -91 -111 -101 -93 -14 -179 29 -204 103 l-11 33 -89 0 -89 0 0 -30 c0 -99
97 -201 225 -235 95 -26 240 -17 315 18 107 51 152 117 152 222 1 135 -70 196
-293 255 -126 33 -170 55 -183 92 -29 81 92 155 191 117 40 -15 81 -57 88 -90
l7 -29 94 0 c89 0 94 1 94 21 0 80 -74 181 -162 220 -43 18 -74 23 -158 25
-58 2 -118 -1 -135 -5z"/>
<path d="M5799 1577 c-75 -31 -121 -69 -162 -130 -54 -81 -70 -138 -75 -265
-8 -213 59 -341 216 -415 85 -40 214 -49 308 -22 69 19 153 71 182 113 l21 29
-52 51 -53 52 -29 -31 c-40 -41 -96 -69 -153 -76 -121 -14 -216 59 -246 190
l-6 27 275 0 275 0 0 86 c0 202 -77 341 -217 394 -78 29 -209 27 -284 -3z
m219 -148 c35 -18 49 -32 68 -73 13 -28 24 -63 24 -78 l0 -28 -175 0 c-169 0
-175 1 -175 20 0 32 28 92 58 124 55 58 126 71 200 35z"/>
<path d="M1360 1165 l0 -425 95 0 95 0 0 425 0 425 -95 0 -95 0 0 -425z"/>
<path d="M4730 1588 c0 -2 67 -192 149 -423 l148 -419 -24 -60 c-12 -33 -33
-70 -45 -83 -24 -25 -75 -43 -125 -43 l-33 0 0 -74 0 -73 31 -7 c121 -24 241
35 296 146 18 35 363 1019 363 1034 0 2 -46 4 -102 4 l-103 0 -65 -218 c-94
-318 -102 -343 -106 -340 -1 2 -37 114 -79 248 -42 135 -81 260 -86 278 l-11
32 -104 0 c-57 0 -104 -1 -104 -2z"/>
</g>
</svg>
